<?xml version="1.0" encoding="UTF-8" standalone="no"?>
<!-- Created with Inkscape (http://www.inkscape.org/) -->

<svg
   xmlns:dc="http://purl.org/dc/elements/1.1/"
   xmlns:cc="http://creativecommons.org/ns#"
   xmlns:rdf="http://www.w3.org/1999/02/22-rdf-syntax-ns#"
   xmlns:svg="http://www.w3.org/2000/svg"
   xmlns="http://www.w3.org/2000/svg"
   xmlns:xlink="http://www.w3.org/1999/xlink"
   xmlns:sodipodi="http://sodipodi.sourceforge.net/DTD/sodipodi-0.dtd"
   xmlns:inkscape="http://www.inkscape.org/namespaces/inkscape"
   width="128"
   height="128"
   id="svg2"
   version="1.1"
   inkscape:version="0.48.2 r9819"
   sodipodi:docname="gamersnews.svg"
   inkscape:export-filename="/home/smeghead/eclipse/gamersnews/gamersnews512.png"
   inkscape:export-xdpi="411.42999"
   inkscape:export-ydpi="411.42999">
  <defs
     id="defs4">
    <linearGradient
       id="linearGradient3856">
      <stop
         id="stop3864"
         offset="0"
         style="stop-color:#000000;stop-opacity:0.04225352;" />
      <stop
         id="stop3860"
         offset="1"
         style="stop-color:#000000;stop-opacity:1;" />
    </linearGradient>
    <radialGradient
       inkscape:collect="always"
       xlink:href="#linearGradient3856"
       id="radialGradient3854"
       cx="64"
       cy="64"
       fx="64"
       fy="64"
       r="56"
       gradientUnits="userSpaceOnUse"
       gradientTransform="translate(0,924.36218)" />
    <linearGradient
       gradientTransform="translate(0,-0.13173155)"
       gradientUnits="userSpaceOnUse"
       y2="1037.3622"
       x2="200"
       y1="1037.3622"
       x1="0"
       id="linearGradient3818"
       xlink:href="#linearGradient3812"
       inkscape:collect="always" />
    <linearGradient
       gradientTransform="translate(0,1022.3623)"
       spreadMethod="pad"
       gradientUnits="userSpaceOnUse"
       y2="15"
       x2="200"
       y1="15"
       x1="0"
       id="linearGradient3769"
       xlink:href="#linearGradient3802"
       inkscape:collect="always" />
    <linearGradient
       id="linearGradient3759">
      <stop
         id="stop3796"
         offset="0"
         style="stop-color:#000000;stop-opacity:1;" />
      <stop
         id="stop3763"
         offset="1"
         style="stop-color:#000000;stop-opacity:0;" />
    </linearGradient>
    <linearGradient
       id="linearGradient3802">
      <stop
         style="stop-color:#000000;stop-opacity:1;"
         offset="0"
         id="stop3804" />
      <stop
         style="stop-color:#000000;stop-opacity:0;"
         offset="1"
         id="stop3806" />
    </linearGradient>
    <linearGradient
       id="linearGradient3812"
       inkscape:collect="always">
      <stop
         id="stop3814"
         offset="0"
         style="stop-color:#000000;stop-opacity:1;" />
      <stop
         id="stop3816"
         offset="1"
         style="stop-color:#000000;stop-opacity:0;" />
    </linearGradient>
  </defs>
  <sodipodi:namedview
     id="base"
     pagecolor="#ffffff"
     bordercolor="#666666"
     borderopacity="1.0"
     inkscape:pageopacity="0.0"
     inkscape:pageshadow="2"
     inkscape:zoom="3.9375"
     inkscape:cx="34.526786"
     inkscape:cy="64"
     inkscape:document-units="px"
     inkscape:current-layer="layer1"
     showgrid="true"
     inkscape:window-width="1241"
     inkscape:window-height="706"
     inkscape:window-x="81"
     inkscape:window-y="999"
     inkscape:window-maximized="0">
    <inkscape:grid
       type="xygrid"
       id="grid2985"
       empspacing="5"
       visible="true"
       enabled="true"
       snapvisiblegridlinesonly="true"
       spacingx="8px"
       spacingy="8px" />
  </sodipodi:namedview>
  <metadata
     id="metadata7">
    <rdf:RDF>
      <cc:Work
         rdf:about="">
        <dc:format>image/svg+xml</dc:format>
        <dc:type
           rdf:resource="http://purl.org/dc/dcmitype/StillImage" />
        <dc:title></dc:title>
      </cc:Work>
    </rdf:RDF>
  </metadata>
  <g
     inkscape:label="レイヤー 1"
     inkscape:groupmode="layer"
     id="layer1"
     transform="translate(0,-924.36218)">
    <rect
       style="fill:#cccc00;fill-opacity:1;fill-rule:nonzero;stroke:none"
       id="rect2987"
       width="112"
       height="112"
       x="8"
       y="932.36218"
       rx="15"
       ry="15" />
    <rect
       ry="15"
       rx="15"
       y="932.36218"
       x="8"
       height="112"
       width="112"
       id="rect3838"
       style="opacity:0.22758622;fill:url(#radialGradient3854);fill-opacity:1;fill-rule:nonzero;stroke:none" />
    <g
       id="g3798"
       transform="translate(0,4.0000178)">
      <g
         transform="matrix(0.58560501,0,0,1.7636684,8.7221811,-720.45295)"
         id="text3757-0-9"
         style="font-size:40px;font-style:normal;font-variant:normal;font-weight:bold;font-stretch:normal;text-align:justify;line-height:125%;letter-spacing:0px;word-spacing:0px;writing-mode:lr-tb;text-anchor:start;fill:#ffffff;fill-opacity:1;stroke:none;font-family:Mobile Man;-inkscape-font-specification:Mobile Man Bold">
        <path
           inkscape:connector-curvature="0"
           id="path3775"
           style="font-family:Mobile Man;-inkscape-font-specification:Mobile Man Bold"
           d="m 14.4,950.40218 0,-4.08 -4.08,0 0,4.08 4.08,0 m 9.32,-8.72 -4.08,0 0,4.08 4.08,0 0,-4.08 m -8.72,0 0,4.08 4.04,0 0,-4.08 -4.04,0 m 8.72,13.36 0,-4.08 -4.08,0 0,4.08 4.08,0 m -9.32,0 0,-4.08 -4.08,0 0,4.08 4.08,0 m 9.32,5.24 -4.08,0 0,4.08 4.08,0 0,-4.08 m -4.68,0 -4.04,0 0,4.08 4.04,0 0,-4.08 m -4.64,-0.56 0,-4.08 -4.08,0 0,4.08 4.08,0 m 13.96,-18.04 -4.08,0 0,4.08 4.08,0 0,-4.08 m 0,13.36 0,-4.08 -4.08,0 0,4.08 4.08,0 m 0,5.24 -4.08,0 0,4.08 4.08,0 0,-4.08 m 0.6,-18.6 0,4.08 4.04,0 0,-4.08 -4.04,0 m 4.04,13.36 0,-4.08 -4.04,0 0,4.08 4.04,0 m 0,5.24 -4.04,0 0,4.08 4.04,0 0,-4.08 m -4.04,-4.64 0,4.08 4.04,0 0,-4.08 -4.04,0" />
        <path
           inkscape:connector-curvature="0"
           id="path3777"
           style="font-family:Mobile Man;-inkscape-font-specification:Mobile Man Bold"
           d="m 41.74375,950.40218 0,-4.08 -4.08,0 0,4.08 4.08,0 m 9.32,-8.72 -4.08,0 0,4.08 4.08,0 0,-4.08 m -8.72,0 0,4.08 4.04,0 0,-4.08 -4.04,0 m 8.72,13.36 0,-4.08 -4.08,0 0,4.08 4.08,0 m -4.68,0 0,-4.08 -4.04,0 0,4.08 4.04,0 m -4.64,0 0,-4.08 -4.08,0 0,4.08 4.08,0 m 0,4.68 0,-4.08 -4.08,0 0,4.08 4.08,0 m -4.08,4.64 4.08,0 0,-4.08 -4.08,0 0,4.08 m 18.04,-22.68 -4.08,0 0,4.08 4.08,0 0,-4.08 m 0,13.36 0,-4.08 -4.08,0 0,4.08 4.08,0 m 0.6,-8.72 0,4.08 4.04,0 0,-4.08 -4.04,0 m 4.04,8.72 0,-4.08 -4.04,0 0,4.08 4.04,0 m 0,5.24 -4.04,0 0,4.08 4.04,0 0,-4.08 m -4.04,-4.64 0,4.08 4.04,0 0,-4.08 -4.04,0" />
        <path
           inkscape:connector-curvature="0"
           id="path3779"
           style="font-family:Mobile Man;-inkscape-font-specification:Mobile Man Bold"
           d="m 69.6875,946.32218 0,4.08 4.04,0 0,-4.08 -4.04,0 m -0.6,4.08 0,-4.08 -4.08,0 0,4.08 4.08,0 m 0,-4.64 0,-4.08 -4.08,0 0,4.08 4.08,0 m 9.32,9.28 0,-4.08 -4.08,0 0,4.08 4.08,0 m -9.32,0 0,-4.08 -4.08,0 0,4.08 4.08,0 m 0,4.68 0,-4.08 -4.08,0 0,4.08 4.08,0 m -4.08,4.64 4.08,0 0,-4.08 -4.08,0 0,4.08 m 18.04,-13.96 0,-4.08 -4.08,0 0,4.08 4.08,0 m 0.6,-4.08 0,4.08 4.04,0 0,-4.08 -4.04,0 m 0,-4.64 0,4.08 4.04,0 0,-4.08 -4.04,0 m 4.04,13.36 0,-4.08 -4.04,0 0,4.08 4.04,0 m 0,5.24 -4.04,0 0,4.08 4.04,0 0,-4.08 m -4.04,-4.64 0,4.08 4.04,0 0,-4.08 -4.04,0" />
        <path
           inkscape:connector-curvature="0"
           id="path3781"
           style="font-family:Mobile Man;-inkscape-font-specification:Mobile Man Bold"
           d="m 96.43125,950.40218 0,-4.08 -4.08,0 0,4.08 4.08,0 m 9.32,-8.72 -4.08,0 0,4.08 4.08,0 0,-4.08 m -9.32,4.08 0,-4.08 -4.08,0 0,4.08 4.08,0 m 0.6,-4.08 0,4.08 4.04,0 0,-4.08 -4.04,0 m 8.72,13.36 0,-4.08 -4.08,0 0,4.08 4.08,0 m -4.68,0 0,-4.08 -4.04,0 0,4.08 4.04,0 m -4.64,0 0,-4.08 -4.08,0 0,4.08 4.08,0 m 9.32,5.24 -4.08,0 0,4.08 4.08,0 0,-4.08 m -4.68,0 -4.04,0 0,4.08 4.04,0 0,-4.08 m -4.64,-0.56 0,-4.08 -4.08,0 0,4.08 4.08,0 m -4.08,4.64 4.08,0 0,-4.08 -4.08,0 0,4.08 m 18.04,-22.68 -4.08,0 0,4.08 4.08,0 0,-4.08 m 0,18.6 -4.08,0 0,4.08 4.08,0 0,-4.08 m 0.6,-18.6 0,4.08 4.04,0 0,-4.08 -4.04,0 m 4.04,18.6 -4.04,0 0,4.08 4.04,0 0,-4.08" />
        <path
           inkscape:connector-curvature="0"
           id="path3783"
           style="font-family:Mobile Man;-inkscape-font-specification:Mobile Man Bold"
           d="m 123.775,950.40218 0,-4.08 -4.08,0 0,4.08 4.08,0 m 9.32,-8.72 -4.08,0 0,4.08 4.08,0 0,-4.08 m -9.32,4.08 0,-4.08 -4.08,0 0,4.08 4.08,0 m 0.6,-4.08 0,4.08 4.04,0 0,-4.08 -4.04,0 m 8.72,13.36 0,-4.08 -4.08,0 0,4.08 4.08,0 m -4.68,0 0,-4.08 -4.04,0 0,4.08 4.04,0 m -4.64,0 0,-4.08 -4.08,0 0,4.08 4.08,0 m 9.32,5.24 -4.08,0 0,4.08 4.08,0 0,-4.08 m -4.68,0 -4.04,0 0,4.08 4.04,0 0,-4.08 m -4.64,-0.56 0,-4.08 -4.08,0 0,4.08 4.08,0 m -4.08,4.64 4.08,0 0,-4.08 -4.08,0 0,4.08 m 18.04,-22.68 -4.08,0 0,4.08 4.08,0 0,-4.08 m 0,18.6 -4.08,0 0,4.08 4.08,0 0,-4.08 m 0.6,-18.6 0,4.08 4.04,0 0,-4.08 -4.04,0 m 4.04,18.6 -4.04,0 0,4.08 4.04,0 0,-4.08" />
        <path
           inkscape:connector-curvature="0"
           id="path3785"
           style="font-family:Mobile Man;-inkscape-font-specification:Mobile Man Bold"
           d="m 151.11875,950.40218 0,-4.08 -4.08,0 0,4.08 4.08,0 m 0,-4.64 0,-4.08 -4.08,0 0,4.08 4.08,0" />
        <path
           inkscape:connector-curvature="0"
           id="path3787"
           style="font-family:Mobile Man;-inkscape-font-specification:Mobile Man Bold"
           d="m 159.86875,950.40218 0,-4.08 -4.08,0 0,4.08 4.08,0 m 9.32,-8.72 -4.08,0 0,4.08 4.08,0 0,-4.08 m -8.72,0 0,4.08 4.04,0 0,-4.08 -4.04,0 m 8.72,13.36 0,-4.08 -4.08,0 0,4.08 4.08,0 m -4.68,0 0,-4.08 -4.04,0 0,4.08 4.04,0 m 4.68,5.24 -4.08,0 0,4.08 4.08,0 0,-4.08 m -4.68,0 -4.04,0 0,4.08 4.04,0 0,-4.08 m -8.72,4.08 4.08,0 0,-4.08 -4.08,0 0,4.08 m 18.04,-22.68 -4.08,0 0,4.08 4.08,0 0,-4.08 m 0,13.36 0,-4.08 -4.08,0 0,4.08 4.08,0 m 0,5.24 -4.08,0 0,4.08 4.08,0 0,-4.08 m 0.6,-18.6 0,4.08 4.04,0 0,-4.08 -4.04,0 m 0,13.96 0,4.08 4.04,0 0,-4.08 -4.04,0" />
      </g>
      <g
         transform="matrix(0.5637527,0,0,1.7636684,28.666447,-785.32774)"
         id="text3757-0-9-6"
         style="font-size:50px;font-style:normal;font-variant:normal;font-weight:bold;font-stretch:normal;text-align:justify;line-height:125%;letter-spacing:0px;word-spacing:0px;writing-mode:lr-tb;text-anchor:start;fill:#ffffff;fill-opacity:1;stroke:none;font-family:Impact;-inkscape-font-specification:Impact Bold">
        <path
           inkscape:connector-curvature="0"
           id="path3790"
           style="font-size:40px;font-family:Mobile Man;-inkscape-font-specification:Mobile Man Bold"
           d="m 23.72,1014.4022 0,-4.08 -4.08,0 0,4.08 4.08,0 m -9.32,0 0,-4.08 -4.08,0 0,4.08 4.08,0 m 0,-4.64 0,-4.08 -4.08,0 0,4.08 4.08,0 m 0.6,-4.08 0,4.08 4.04,0 0,-4.08 -4.04,0 m 8.72,13.36 0,-4.08 -4.08,0 0,4.08 4.08,0 m -9.32,0 0,-4.08 -4.08,0 0,4.08 4.08,0 m 9.32,0.6 -4.08,0 0,4.08 4.08,0 0,-4.08 m -9.32,4.08 0,-4.08 -4.08,0 0,4.08 4.08,0 m -4.08,4.64 4.08,0 0,-4.08 -4.08,0 0,4.08 m 18.04,-4.08 -4.08,0 0,4.08 4.08,0 0,-4.08 m 0.6,-13.96 0,4.08 4.04,0 0,-4.08 -4.04,0 m 0,-4.64 0,4.08 4.04,0 0,-4.08 -4.04,0 m 4.04,13.36 0,-4.08 -4.04,0 0,4.08 4.04,0 m 0,5.24 -4.04,0 0,4.08 4.04,0 0,-4.08 m -4.04,-4.64 0,4.08 4.04,0 0,-4.08 -4.04,0" />
        <path
           inkscape:connector-curvature="0"
           id="path3792"
           style="font-size:40px;font-family:Mobile Man;-inkscape-font-specification:Mobile Man Bold"
           d="m 41.74375,1014.4022 0,-4.08 -4.08,0 0,4.08 4.08,0 m 9.32,-8.72 -4.08,0 0,4.08 4.08,0 0,-4.08 m -9.32,4.08 0,-4.08 -4.08,0 0,4.08 4.08,0 m 0.6,-4.08 0,4.08 4.04,0 0,-4.08 -4.04,0 m 8.72,13.36 0,-4.08 -4.08,0 0,4.08 4.08,0 m -4.68,0 0,-4.08 -4.04,0 0,4.08 4.04,0 m -4.64,0 0,-4.08 -4.08,0 0,4.08 4.08,0 m 9.32,5.24 -4.08,0 0,4.08 4.08,0 0,-4.08 m -4.68,0 -4.04,0 0,4.08 4.04,0 0,-4.08 m -4.64,-0.56 0,-4.08 -4.08,0 0,4.08 4.08,0 m -4.08,4.64 4.08,0 0,-4.08 -4.08,0 0,4.08 m 18.04,-22.68 -4.08,0 0,4.08 4.08,0 0,-4.08 m 0,18.6 -4.08,0 0,4.08 4.08,0 0,-4.08 m 0.6,-18.6 0,4.08 4.04,0 0,-4.08 -4.04,0 m 4.04,18.6 -4.04,0 0,4.08 4.04,0 0,-4.08" />
        <path
           inkscape:connector-curvature="0"
           id="path3794"
           style="font-size:40px;font-family:Mobile Man;-inkscape-font-specification:Mobile Man Bold"
           d="m 69.0875,1014.4022 0,-4.08 -4.08,0 0,4.08 4.08,0 m 0,-4.64 0,-4.08 -4.08,0 0,4.08 4.08,0 m 9.32,9.28 0,-4.08 -4.08,0 0,4.08 4.08,0 m -9.32,0 0,-4.08 -4.08,0 0,4.08 4.08,0 m 0,4.68 0,-4.08 -4.08,0 0,4.08 4.08,0 m 0.6,-4.08 0,4.08 4.04,0 0,-4.08 -4.04,0 m -4.68,8.72 4.08,0 0,-4.08 -4.08,0 0,4.08 m 18.04,-8.72 -4.08,0 0,4.08 4.08,0 0,-4.08 m 0.6,-9.32 0,4.08 4.04,0 0,-4.08 -4.04,0 m 0,-4.64 0,4.08 4.04,0 0,-4.08 -4.04,0 m 4.04,13.36 0,-4.08 -4.04,0 0,4.08 4.04,0 m 0,5.24 -4.04,0 0,4.08 4.04,0 0,-4.08 m -4.04,-4.64 0,4.08 4.04,0 0,-4.08 -4.04,0" />
        <path
           inkscape:connector-curvature="0"
           id="path3796"
           style="font-size:40px;font-family:Mobile Man;-inkscape-font-specification:Mobile Man Bold"
           d="m 96.43125,1014.4022 0,-4.08 -4.08,0 0,4.08 4.08,0 m 9.32,-8.72 -4.08,0 0,4.08 4.08,0 0,-4.08 m -8.72,0 0,4.08 4.04,0 0,-4.08 -4.04,0 m 8.72,13.36 0,-4.08 -4.08,0 0,4.08 4.08,0 m -4.68,0 0,-4.08 -4.04,0 0,4.08 4.04,0 m 4.68,5.24 -4.08,0 0,4.08 4.08,0 0,-4.08 m -4.68,0 -4.04,0 0,4.08 4.04,0 0,-4.08 m -8.72,4.08 4.08,0 0,-4.08 -4.08,0 0,4.08 m 18.04,-22.68 -4.08,0 0,4.08 4.08,0 0,-4.08 m 0,13.36 0,-4.08 -4.08,0 0,4.08 4.08,0 m 0,5.24 -4.08,0 0,4.08 4.08,0 0,-4.08 m 0.6,-18.6 0,4.08 4.04,0 0,-4.08 -4.04,0 m 0,13.96 0,4.08 4.04,0 0,-4.08 -4.04,0" />
      </g>
    </g>
  </g>
</svg>
