<?xml version="1.0" encoding="UTF-8" standalone="no"?>
<!-- Created with Inkscape (http://www.inkscape.org/) -->

<svg
   xmlns:dc="http://purl.org/dc/elements/1.1/"
   xmlns:cc="http://creativecommons.org/ns#"
   xmlns:rdf="http://www.w3.org/1999/02/22-rdf-syntax-ns#"
   xmlns:svg="http://www.w3.org/2000/svg"
   xmlns="http://www.w3.org/2000/svg"
   xmlns:xlink="http://www.w3.org/1999/xlink"
   xmlns:sodipodi="http://sodipodi.sourceforge.net/DTD/sodipodi-0.dtd"
   xmlns:inkscape="http://www.inkscape.org/namespaces/inkscape"
   width="200"
   height="30"
   id="svg2"
   version="1.1"
   inkscape:version="0.48.2 r9819"
   sodipodi:docname="header.svg"
   inkscape:export-filename="/home/smeghead/eclipse/gamersnews/res/drawable-hdpi/header.png"
   inkscape:export-xdpi="119.47466"
   inkscape:export-ydpi="119.47466">
  <defs
     id="defs4">
    <linearGradient
       inkscape:collect="always"
       id="linearGradient3812">
      <stop
         style="stop-color:#000000;stop-opacity:1;"
         offset="0"
         id="stop3814" />
      <stop
         style="stop-color:#000000;stop-opacity:0;"
         offset="1"
         id="stop3816" />
    </linearGradient>
    <linearGradient
       id="linearGradient3802">
      <stop
         id="stop3804"
         offset="0"
         style="stop-color:#000000;stop-opacity:1;" />
      <stop
         id="stop3806"
         offset="1"
         style="stop-color:#000000;stop-opacity:0;" />
    </linearGradient>
    <linearGradient
       id="linearGradient3759">
      <stop
         style="stop-color:#000000;stop-opacity:1;"
         offset="0"
         id="stop3796" />
      <stop
         style="stop-color:#000000;stop-opacity:0;"
         offset="1"
         id="stop3763" />
    </linearGradient>
    <linearGradient
       inkscape:collect="always"
       xlink:href="#linearGradient3802"
       id="linearGradient3769"
       x1="0"
       y1="15"
       x2="200"
       y2="15"
       gradientUnits="userSpaceOnUse"
       spreadMethod="pad"
       gradientTransform="translate(0,1022.3623)" />
    <linearGradient
       inkscape:collect="always"
       xlink:href="#linearGradient3812"
       id="linearGradient3818"
       x1="0"
       y1="1037.3622"
       x2="200"
       y2="1037.3622"
       gradientUnits="userSpaceOnUse"
       gradientTransform="translate(0,3.1238281e-4)" />
  </defs>
  <sodipodi:namedview
     id="base"
     pagecolor="#ffffff"
     bordercolor="#666666"
     borderopacity="1.0"
     inkscape:pageopacity="0.0"
     inkscape:pageshadow="2"
     inkscape:zoom="4.56"
     inkscape:cx="108.90017"
     inkscape:cy="15"
     inkscape:document-units="px"
     inkscape:current-layer="layer1"
     showgrid="true"
     inkscape:window-width="1238"
     inkscape:window-height="520"
     inkscape:window-x="164"
     inkscape:window-y="991"
     inkscape:window-maximized="0">
    <inkscape:grid
       type="xygrid"
       id="grid3753"
       empspacing="5"
       visible="true"
       enabled="true"
       snapvisiblegridlinesonly="true"
       spacingx="10px"
       spacingy="10px" />
  </sodipodi:namedview>
  <metadata
     id="metadata7">
    <rdf:RDF>
      <cc:Work
         rdf:about="">
        <dc:format>image/svg+xml</dc:format>
        <dc:type
           rdf:resource="http://purl.org/dc/dcmitype/StillImage" />
        <dc:title></dc:title>
      </cc:Work>
    </rdf:RDF>
  </metadata>
  <g
     inkscape:label="レイヤー 1"
     inkscape:groupmode="layer"
     id="layer1"
     transform="translate(0,-1022.3622)">
    <rect
       style="opacity:1;fill:#cccc00;fill-opacity:1;fill-rule:nonzero;stroke:none"
       id="rect3755"
       width="200"
       height="30"
       x="0"
       y="1022.3622"
       rx="0"
       ry="0" />
    <rect
       ry="0"
       rx="0"
       y="1022.3622"
       x="0"
       height="30"
       width="200"
       id="rect3810"
       style="opacity:0.28620689;fill:url(#linearGradient3818);fill-opacity:1;fill-rule:nonzero;stroke:none"
       inkscape:export-xdpi="120"
       inkscape:export-ydpi="120"
       inkscape:export-filename="/home/smeghead/eclipse/RockNews/res/drawable-hdpi/header.png" />
    <g
       style="font-size:13px;font-style:normal;font-variant:normal;font-weight:normal;font-stretch:normal;text-align:justify;line-height:125%;letter-spacing:0px;word-spacing:0px;writing-mode:lr-tb;text-anchor:start;fill:#ffffff;fill-opacity:1;stroke:none;font-family:'Takaoゴシック';-inkscape-font-specification:'Takaoゴシック'"
       id="text3773"
       transform="matrix(0.57198795,0,0,1.3092152,1.6504146,-321.18398)"
       inkscape:export-filename="/home/smeghead/eclipse/RockNews/res/drawable-hdpi/header.png"
       inkscape:export-xdpi="120"
       inkscape:export-ydpi="120">
      <path
         d="m 7.12,1035.5838 0,-3.264 -3.264,0 0,3.264 3.264,0 m 7.456,-6.976 -3.264,0 0,3.264 3.264,0 0,-3.264 m -6.976,0 0,3.264 3.232,0 0,-3.264 -3.232,0 m 6.976,10.688 0,-3.264 -3.264,0 0,3.264 3.264,0 m -7.456,0 0,-3.264 -3.264,0 0,3.264 3.264,0 m 7.456,4.192 -3.264,0 0,3.264 3.264,0 0,-3.264 m -3.744,0 -3.232,0 0,3.264 3.232,0 0,-3.264 m -3.712,-0.448 0,-3.264 -3.264,0 0,3.264 3.264,0 m 11.168,-14.432 -3.264,0 0,3.264 3.264,0 0,-3.264 m 0,10.688 0,-3.264 -3.264,0 0,3.264 3.264,0 m 0,4.192 -3.264,0 0,3.264 3.264,0 0,-3.264 m 0.48,-14.88 0,3.264 3.232,0 0,-3.264 -3.232,0 m 3.232,10.688 0,-3.264 -3.232,0 0,3.264 3.232,0 m 0,4.192 -3.232,0 0,3.264 3.232,0 0,-3.264 m -3.232,-3.712 0,3.264 3.232,0 0,-3.264 -3.232,0"
         style="font-size:32px;fill:#ffffff;font-family:Mobile Man;-inkscape-font-specification:Mobile Man"
         id="path2999"
         inkscape:connector-curvature="0" />
      <path
         d="m 28.995,1035.5838 0,-3.264 -3.264,0 0,3.264 3.264,0 m 7.456,-6.976 -3.264,0 0,3.264 3.264,0 0,-3.264 m -6.976,0 0,3.264 3.232,0 0,-3.264 -3.232,0 m 6.976,10.688 0,-3.264 -3.264,0 0,3.264 3.264,0 m -3.744,0 0,-3.264 -3.232,0 0,3.264 3.232,0 m -3.712,0 0,-3.264 -3.264,0 0,3.264 3.264,0 m 0,3.744 0,-3.264 -3.264,0 0,3.264 3.264,0 m -3.264,3.712 3.264,0 0,-3.264 -3.264,0 0,3.264 m 14.432,-18.144 -3.264,0 0,3.264 3.264,0 0,-3.264 m 0,10.688 0,-3.264 -3.264,0 0,3.264 3.264,0 m 0.48,-6.976 0,3.264 3.232,0 0,-3.264 -3.232,0 m 3.232,6.976 0,-3.264 -3.232,0 0,3.264 3.232,0 m 0,4.192 -3.232,0 0,3.264 3.232,0 0,-3.264 m -3.232,-3.712 0,3.264 3.232,0 0,-3.264 -3.232,0"
         style="font-size:32px;fill:#ffffff;font-family:Mobile Man;-inkscape-font-specification:Mobile Man"
         id="path3001"
         inkscape:connector-curvature="0" />
      <path
         d="m 51.35,1032.3198 0,3.264 3.232,0 0,-3.264 -3.232,0 m -0.48,3.264 0,-3.264 -3.264,0 0,3.264 3.264,0 m 0,-3.712 0,-3.264 -3.264,0 0,3.264 3.264,0 m 7.456,7.424 0,-3.264 -3.264,0 0,3.264 3.264,0 m -7.456,0 0,-3.264 -3.264,0 0,3.264 3.264,0 m 0,3.744 0,-3.264 -3.264,0 0,3.264 3.264,0 m -3.264,3.712 3.264,0 0,-3.264 -3.264,0 0,3.264 m 14.432,-11.168 0,-3.264 -3.264,0 0,3.264 3.264,0 m 0.48,-3.264 0,3.264 3.232,0 0,-3.264 -3.232,0 m 0,-3.712 0,3.264 3.232,0 0,-3.264 -3.232,0 m 3.232,10.688 0,-3.264 -3.232,0 0,3.264 3.232,0 m 0,4.192 -3.232,0 0,3.264 3.232,0 0,-3.264 m -3.232,-3.712 0,3.264 3.232,0 0,-3.264 -3.232,0"
         style="font-size:32px;fill:#ffffff;font-family:Mobile Man;-inkscape-font-specification:Mobile Man"
         id="path3003"
         inkscape:connector-curvature="0" />
      <path
         d="m 72.745,1035.5838 0,-3.264 -3.264,0 0,3.264 3.264,0 m 7.456,-6.976 -3.264,0 0,3.264 3.264,0 0,-3.264 m -7.456,3.264 0,-3.264 -3.264,0 0,3.264 3.264,0 m 0.48,-3.264 0,3.264 3.232,0 0,-3.264 -3.232,0 m 6.976,10.688 0,-3.264 -3.264,0 0,3.264 3.264,0 m -3.744,0 0,-3.264 -3.232,0 0,3.264 3.232,0 m -3.712,0 0,-3.264 -3.264,0 0,3.264 3.264,0 m 7.456,4.192 -3.264,0 0,3.264 3.264,0 0,-3.264 m -3.744,0 -3.232,0 0,3.264 3.232,0 0,-3.264 m -3.712,-0.448 0,-3.264 -3.264,0 0,3.264 3.264,0 m -3.264,3.712 3.264,0 0,-3.264 -3.264,0 0,3.264 m 14.432,-18.144 -3.264,0 0,3.264 3.264,0 0,-3.264 m 0,14.88 -3.264,0 0,3.264 3.264,0 0,-3.264 m 0.48,-14.88 0,3.264 3.232,0 0,-3.264 -3.232,0 m 3.232,14.88 -3.232,0 0,3.264 3.232,0 0,-3.264"
         style="font-size:32px;fill:#ffffff;font-family:Mobile Man;-inkscape-font-specification:Mobile Man"
         id="path3005"
         inkscape:connector-curvature="0" />
      <path
         d="m 94.62,1035.5838 0,-3.264 -3.264,0 0,3.264 3.264,0 m 7.456,-6.976 -3.264,0 0,3.264 3.264,0 0,-3.264 m -7.456,3.264 0,-3.264 -3.264,0 0,3.264 3.264,0 m 0.48,-3.264 0,3.264 3.232,0 0,-3.264 -3.232,0 m 6.976,10.688 0,-3.264 -3.264,0 0,3.264 3.264,0 m -3.744,0 0,-3.264 -3.232,0 0,3.264 3.232,0 m -3.712,0 0,-3.264 -3.264,0 0,3.264 3.264,0 m 0,3.744 0,-3.264 -3.264,0 0,3.264 3.264,0 m -3.264,3.712 3.264,0 0,-3.264 -3.264,0 0,3.264 m 14.432,-18.144 -3.264,0 0,3.264 3.264,0 0,-3.264 m 0,11.168 -3.264,0 0,3.264 3.264,0 0,-3.264 m 0,-0.48 0,-3.264 -3.264,0 0,3.264 3.264,0 m 0.48,-6.976 0,3.264 3.232,0 0,-3.264 -3.232,0 m 3.232,3.712 -3.232,0 3.232,0 m 0,7.456 -3.232,0 0,3.264 3.232,0 0,-3.264"
         style="font-size:32px;fill:#ffffff;font-family:Mobile Man;-inkscape-font-specification:Mobile Man"
         id="path3007"
         inkscape:connector-curvature="0" />
      <path
         d="m 116.495,1035.5838 0,-3.264 -3.264,0 0,3.264 3.264,0 m 0,-3.712 0,-3.264 -3.264,0 0,3.264 3.264,0"
         style="font-size:32px;fill:#ffffff;font-family:Mobile Man;-inkscape-font-specification:Mobile Man"
         id="path3009"
         inkscape:connector-curvature="0" />
      <path
         d="m 123.495,1035.5838 0,-3.264 -3.264,0 0,3.264 3.264,0 m 7.456,-6.976 -3.264,0 0,3.264 3.264,0 0,-3.264 m -6.976,0 0,3.264 3.232,0 0,-3.264 -3.232,0 m 6.976,10.688 0,-3.264 -3.264,0 0,3.264 3.264,0 m -3.744,0 0,-3.264 -3.232,0 0,3.264 3.232,0 m 3.744,4.192 -3.264,0 0,3.264 3.264,0 0,-3.264 m -3.744,0 -3.232,0 0,3.264 3.232,0 0,-3.264 m -6.976,3.264 3.264,0 0,-3.264 -3.264,0 0,3.264 m 14.432,-18.144 -3.264,0 0,3.264 3.264,0 0,-3.264 m 0,10.688 0,-3.264 -3.264,0 0,3.264 3.264,0 m 0,4.192 -3.264,0 0,3.264 3.264,0 0,-3.264 m 0.48,-14.88 0,3.264 3.232,0 0,-3.264 -3.232,0 m 0,11.168 0,3.264 3.232,0 0,-3.264 -3.232,0"
         style="font-size:32px;fill:#ffffff;font-family:Mobile Man;-inkscape-font-specification:Mobile Man"
         id="path3011"
         inkscape:connector-curvature="0" />
      <path
         d="m 168.826,1035.5838 0,-3.264 -3.264,0 0,3.264 3.264,0 m -7.456,0 0,-3.264 -3.264,0 0,3.264 3.264,0 m 0,-3.712 0,-3.264 -3.264,0 0,3.264 3.264,0 m 0.48,-3.264 0,3.264 3.232,0 0,-3.264 -3.232,0 m 6.976,10.688 0,-3.264 -3.264,0 0,3.264 3.264,0 m -7.456,0 0,-3.264 -3.264,0 0,3.264 3.264,0 m 7.456,0.48 -3.264,0 0,3.264 3.264,0 0,-3.264 m -7.456,3.264 0,-3.264 -3.264,0 0,3.264 3.264,0 m -3.264,3.712 3.264,0 0,-3.264 -3.264,0 0,3.264 m 14.432,-3.264 -3.264,0 0,3.264 3.264,0 0,-3.264 m 0.48,-11.168 0,3.264 3.232,0 0,-3.264 -3.232,0 m 0,-3.712 0,3.264 3.232,0 0,-3.264 -3.232,0 m 3.232,10.688 0,-3.264 -3.232,0 0,3.264 3.232,0 m 0,4.192 -3.232,0 0,3.264 3.232,0 0,-3.264 m -3.232,-3.712 0,3.264 3.232,0 0,-3.264 -3.232,0"
         style="font-size:32px;fill:#ffffff;font-family:Mobile Man;-inkscape-font-specification:Mobile Man"
         id="path3013"
         inkscape:connector-curvature="0" />
      <path
         d="m 183.245,1035.5838 0,-3.264 -3.264,0 0,3.264 3.264,0 m 7.456,-6.976 -3.264,0 0,3.264 3.264,0 0,-3.264 m -7.456,3.264 0,-3.264 -3.264,0 0,3.264 3.264,0 m 0.48,-3.264 0,3.264 3.232,0 0,-3.264 -3.232,0 m 6.976,10.688 0,-3.264 -3.264,0 0,3.264 3.264,0 m -3.744,0 0,-3.264 -3.232,0 0,3.264 3.232,0 m -3.712,0 0,-3.264 -3.264,0 0,3.264 3.264,0 m 7.456,4.192 -3.264,0 0,3.264 3.264,0 0,-3.264 m -3.744,0 -3.232,0 0,3.264 3.232,0 0,-3.264 m -3.712,-0.448 0,-3.264 -3.264,0 0,3.264 3.264,0 m -3.264,3.712 3.264,0 0,-3.264 -3.264,0 0,3.264 m 14.432,-18.144 -3.264,0 0,3.264 3.264,0 0,-3.264 m 0,14.88 -3.264,0 0,3.264 3.264,0 0,-3.264 m 0.48,-14.88 0,3.264 3.232,0 0,-3.264 -3.232,0 m 3.232,14.88 -3.232,0 0,3.264 3.232,0 0,-3.264"
         style="font-size:32px;fill:#ffffff;font-family:Mobile Man;-inkscape-font-specification:Mobile Man"
         id="path3015"
         inkscape:connector-curvature="0" />
      <path
         d="m 205.12,1035.5838 0,-3.264 -3.264,0 0,3.264 3.264,0 m 0,-3.712 0,-3.264 -3.264,0 0,3.264 3.264,0 m 7.456,7.424 0,-3.264 -3.264,0 0,3.264 3.264,0 m -7.456,0 0,-3.264 -3.264,0 0,3.264 3.264,0 m 0,3.744 0,-3.264 -3.264,0 0,3.264 3.264,0 m 0.48,-3.264 0,3.264 3.232,0 0,-3.264 -3.232,0 m -3.744,6.976 3.264,0 0,-3.264 -3.264,0 0,3.264 m 14.432,-6.976 -3.264,0 0,3.264 3.264,0 0,-3.264 m 0.48,-7.456 0,3.264 3.232,0 0,-3.264 -3.232,0 m 0,-3.712 0,3.264 3.232,0 0,-3.264 -3.232,0 m 3.232,10.688 0,-3.264 -3.232,0 0,3.264 3.232,0 m 0,4.192 -3.232,0 0,3.264 3.232,0 0,-3.264 m -3.232,-3.712 0,3.264 3.232,0 0,-3.264 -3.232,0"
         style="font-size:32px;fill:#ffffff;font-family:Mobile Man;-inkscape-font-specification:Mobile Man"
         id="path3017"
         inkscape:connector-curvature="0" />
      <path
         d="m 226.995,1035.5838 0,-3.264 -3.264,0 0,3.264 3.264,0 m 7.456,-6.976 -3.264,0 0,3.264 3.264,0 0,-3.264 m -6.976,0 0,3.264 3.232,0 0,-3.264 -3.232,0 m 6.976,10.688 0,-3.264 -3.264,0 0,3.264 3.264,0 m -3.744,0 0,-3.264 -3.232,0 0,3.264 3.232,0 m 3.744,4.192 -3.264,0 0,3.264 3.264,0 0,-3.264 m -3.744,0 -3.232,0 0,3.264 3.232,0 0,-3.264 m -6.976,3.264 3.264,0 0,-3.264 -3.264,0 0,3.264 m 14.432,-18.144 -3.264,0 0,3.264 3.264,0 0,-3.264 m 0,10.688 0,-3.264 -3.264,0 0,3.264 3.264,0 m 0,4.192 -3.264,0 0,3.264 3.264,0 0,-3.264 m 0.48,-14.88 0,3.264 3.232,0 0,-3.264 -3.232,0 m 0,11.168 0,3.264 3.232,0 0,-3.264 -3.232,0"
         style="font-size:32px;fill:#ffffff;font-family:Mobile Man;-inkscape-font-specification:Mobile Man"
         id="path3019"
         inkscape:connector-curvature="0" />
    </g>
  </g>
</svg>
